<?xml version="1.0"?>
<svg xmlns="http://www.w3.org/2000/svg" id="Layer_5" enable-background="new 0 0 64 64" height="512px" viewBox="0 0 64 64" width="512px" class=""><g><link xmlns="" type="text/css" id="dark-mode" rel="stylesheet" href=""/><style xmlns="" type="text/css" id="dark-mode-custom-style"/><g><g><path d="m23.076 22.058-1.547-1.16c-.771-.579-1.727-.898-2.691-.898h-.395c-.879 0-1.722.252-2.443.723-.722-.471-1.564-.723-2.443-.723h-.395c-.964 0-1.92.319-2.691.897l-1.547 1.16c-1.205.904-1.924 2.342-1.924 3.848 0 .193.012.385.034.571.124 1.03.671 2.026 1.539 2.802l.738.66c.354-.562.976-.938 1.689-.938h1.277c.346-.595.984-1 1.723-1 1.315.658 2.766 1 4.236 1h1.764 1c.713 0 1.334.376 1.689.937l.737-.659c.869-.776 1.416-1.772 1.539-2.798.023-.19.035-.382.035-.575 0-1.506-.719-2.944-1.924-3.847z" fill="#f0bc5e" data-original="#F0BC5E" class="active-path" style="fill:#FFE529" data-old_color="#f0bc5e"/></g><g><path d="m55.076 19.058-1.547-1.16c-.771-.579-1.727-.898-2.691-.898h-.395c-.879 0-1.722.252-2.443.723-.722-.471-1.564-.723-2.443-.723h-.395c-.964 0-1.92.319-2.691.897l-1.547 1.16c-1.205.904-1.924 2.342-1.924 3.848 0 .193.012.385.034.571.124 1.03.671 2.026 1.539 2.802l.738.66c.354-.562.976-.938 1.689-.938h1.277c.346-.595.984-1 1.723-1 1.315.658 2.766 1 4.236 1h1.764 1c.713 0 1.334.376 1.689.937l.737-.659c.869-.776 1.416-1.772 1.539-2.798.023-.19.035-.382.035-.575 0-1.506-.719-2.944-1.924-3.847z" fill="#f0bc5e" data-original="#F0BC5E" class="active-path" style="fill:#FFE529" data-old_color="#f0bc5e"/></g><g><path d="m29 59h6c1.103 0 2-.897 2-2v-2c0-1.103-.897-2-2-2h-6c-1.103 0-2 .897-2 2v2c0 1.103.897 2 2 2zm0-4h6l.001 2h-6.001z" data-original="#000000" class="" data-old_color="#000000" style="fill:#FFF39D"/><path d="m19 59h2c1.103 0 2-.897 2-2v-2c0-1.103-.897-2-2-2h-2c-1.103 0-2 .897-2 2v2c0 1.103.897 2 2 2zm0-4h2l.001 2h-2.001z" data-original="#000000" class="" data-old_color="#000000" style="fill:#FFF39D"/><path d="m43 59h2c1.103 0 2-.897 2-2v-2c0-1.103-.897-2-2-2h-2c-1.103 0-2 .897-2 2v2c0 1.103.897 2 2 2zm0-4h2l.001 2h-2.001z" data-original="#000000" class="" data-old_color="#000000" style="fill:#FFF39D"/><circle cx="32" cy="6" r="1" data-original="#000000" class="" data-old_color="#000000" style="fill:#FFF39D"/><circle cx="46" cy="6" r="1" data-original="#000000" class="" data-old_color="#000000" style="fill:#FFF39D"/><path d="m59 39c0-2.232-1.517-4.15-3.688-4.664l-2.862-.676c-.501-.143-.914-.479-1.17-.917.548-.481.999-1.067 1.296-1.743h.424c1.654 0 3-1.346 3-3s-1.346-3-3-3h-1-1.764c-1.309 0-2.619-.309-3.789-.895l-.211-.105h-.236c-.883 0-1.67.391-2.22 1h-.78c-1.654 0-3 1.346-3 3s1.346 3 3 3h.424c.297.677.748 1.263 1.297 1.744-.254.437-.657.77-1.127.905l-2.905.688c-2.172.513-3.689 2.431-3.689 4.663v1h22zm-6-12c.552 0 1 .449 1 1s-.448 1-1 1zm-10 2c-.552 0-1-.449-1-1s.448-1 1-1zm2-2c0-.486.349-.893.81-.982 1.379.643 2.904.982 4.426.982h.764v2c0 1.654-1.346 3-3 3s-3-1.346-3-3zm-5.817 11c.322-.844 1.042-1.499 1.967-1.718l2.949-.699c1.013-.289 1.85-.964 2.362-1.851.488.16.999.268 1.539.268.541 0 1.052-.108 1.54-.268.514.888 1.36 1.565 2.405 1.863l2.905.688c.925.219 1.645.874 1.967 1.718h-17.634z" data-original="#000000" class="" data-old_color="#000000" style="fill:#FFF39D"/><path d="m31 17h-6v2h4v4h2z" data-original="#000000" class="" data-old_color="#000000" style="fill:#FFF39D"/><path d="m25 45v2h6v-6h-2v4z" data-original="#000000" class="" data-old_color="#000000" style="fill:#FFF39D"/><path d="m3 41h-2v6h6v-2h-4z" data-original="#000000" class="" data-old_color="#000000" style="fill:#FFF39D"/><path d="m3 19h4v-2h-6v6h2z" data-original="#000000" class="" data-old_color="#000000" style="fill:#FFF39D"/><path d="m1 31h4v2h-4z" data-original="#000000" class="" data-old_color="#000000" style="fill:#FFF39D"/><path d="m27 31h4v2h-4z" data-original="#000000" class="" data-old_color="#000000" style="fill:#FFF39D"/><path d="m51 13v-7c0-2.757-2.243-5-5-5h-28c-2.757 0-5 2.243-5 5v14.013c.054-.002.108-.013.162-.013h.395c.499 0 .983.09 1.443.246v-9.246h34v2h-16v31h16v5h-34v-6h12v-1c0-2.232-1.517-4.15-3.688-4.664l-2.862-.676c-.501-.143-.914-.479-1.17-.917.548-.481.999-1.067 1.296-1.743h.424c1.654 0 3-1.346 3-3s-1.346-3-3-3h-1-1.764c-1.309 0-2.619-.309-3.789-.895l-.211-.105h-.236c-.883 0-1.67.391-2.22 1h-.78c-1.654 0-3 1.346-3 3s1.346 3 3 3h.424c.297.677.748 1.263 1.297 1.744-.254.437-.657.77-1.127.905l-2.905.688c-2.172.513-3.689 2.431-3.689 4.663v1h8v15c0 2.757 2.243 5 5 5h28c2.757 0 5-2.243 5-5v-14h12v-31zm-30 17c.552 0 1 .449 1 1s-.448 1-1 1zm-10 2c-.552 0-1-.449-1-1s.448-1 1-1zm2-2c0-.486.349-.893.81-.982 1.379.643 2.904.982 4.426.982h.764v2c0 1.654-1.346 3-3 3s-3-1.346-3-3zm-5.817 11c.322-.844 1.042-1.499 1.967-1.718l2.949-.699c1.013-.289 1.85-.964 2.362-1.851.488.16.999.268 1.539.268.541 0 1.052-.108 1.54-.268.514.888 1.36 1.565 2.405 1.863l2.905.688c.925.219 1.645.874 1.967 1.718h-17.634zm41.817 17c0 1.654-1.346 3-3 3h-28c-1.654 0-3-1.346-3-3v-7h34zm-34-49v-3c0-1.654 1.346-3 3-3h9v3c0 1.13.391 2.162 1.026 3zm20-3c0 1.654-1.346 3-3 3s-3-1.346-3-3v-3h6zm.974 3c.635-.838 1.026-1.87 1.026-3v-3h9c1.654 0 3 1.346 3 3v3zm25.026 33h-26v-27h26z" data-original="#000000" class="" data-old_color="#000000" style="fill:#FFF39D"/></g></g></g> </svg>
