<?xml version="1.0"?>
<svg xmlns="http://www.w3.org/2000/svg" id="Layer_1_1_" enable-background="new 0 0 64 64" height="512px" viewBox="0 0 64 64" width="512px" class=""><g><link xmlns="" type="text/css" id="dark-mode" rel="stylesheet"/><style xmlns="" type="text/css" id="dark-mode-custom-style"/><g fill="#2d366d"><path d="m59 42h-6.414l-4-4h-10.586v-2h11.414l4 4h5.586z" data-original="#2D366D" class="active-path" style="fill:#F4CA7F" data-old_color="#2D366D"/><path d="m59 51h-6.414l-8-8h-6.586v-2h7.414l8 8h5.586z" data-original="#2D366D" class="active-path" style="fill:#F4CA7F" data-old_color="#2D366D"/><path d="m59 60h-5.414l-12-12h-3.586v-2h4.414l12 12h4.586z" data-original="#2D366D" class="active-path" style="fill:#F4CA7F" data-old_color="#2D366D"/><path d="m49.414 28h-11.414v-2h10.586l4-4h6.414v2h-5.586z" data-original="#2D366D" class="active-path" style="fill:#F4CA7F" data-old_color="#2D366D"/><path d="m45.414 23h-7.414v-2h6.586l8-8h6.414v2h-5.586z" data-original="#2D366D" class="active-path" style="fill:#F4CA7F" data-old_color="#2D366D"/><path d="m42.414 18h-4.414v-2h3.586l12-12h5.414v2h-4.586z" data-original="#2D366D" class="active-path" style="fill:#F4CA7F" data-old_color="#2D366D"/><path d="m38 31h21v2h-21z" data-original="#2D366D" class="active-path" style="fill:#F4CA7F" data-old_color="#2D366D"/><path d="m6 18h18v2h-18z" data-original="#2D366D" class="active-path" style="fill:#F4CA7F" data-old_color="#2D366D"/><path d="m14 1.398h2v22.204h-2z" transform="matrix(.586 -.811 .811 .586 -3.916 17.342)" data-original="#2D366D" class="active-path" style="fill:#F4CA7F" data-old_color="#2D366D"/><path d="m14 14.398h2v22.204h-2z" transform="matrix(.586 -.811 .811 .586 -14.455 22.73)" data-original="#2D366D" class="active-path" style="fill:#F4CA7F" data-old_color="#2D366D"/><path d="m3.898 37.5h22.204v2h-22.204z" transform="matrix(.811 -.586 .586 .811 -19.703 16.073)" data-original="#2D366D" class="active-path" style="fill:#F4CA7F" data-old_color="#2D366D"/><path d="m14 27.398h2v22.204h-2z" transform="matrix(.586 -.811 .811 .586 -24.994 28.119)" data-original="#2D366D" class="active-path" style="fill:#F4CA7F" data-old_color="#2D366D"/><path d="m6 44h18v2h-18z" data-original="#2D366D" class="active-path" style="fill:#F4CA7F" data-old_color="#2D366D"/><path d="m6 31h18v2h-18z" data-original="#2D366D" class="active-path" style="fill:#F4CA7F" data-old_color="#2D366D"/><path d="m4.8 50.5h21.401v1.999h-21.401z" transform="matrix(.794 -.608 .608 .794 -28.103 20.016)" data-original="#2D366D" class="active-path" style="fill:#F4CA7F" data-old_color="#2D366D"/><path d="m3.898 24.5h22.204v2h-22.204z" transform="matrix(.811 -.586 .586 .811 -12.091 13.611)" data-original="#2D366D" class="active-path" style="fill:#F4CA7F" data-old_color="#2D366D"/></g><circle cx="60" cy="32" fill="#fda22e" r="2" data-original="#FDA22E" class="" style="fill:#FFE529" data-old_color="#fda22e"/><circle cx="60" cy="41" fill="#fda22e" r="2" data-original="#FDA22E" class="" style="fill:#FFE529" data-old_color="#fda22e"/><circle cx="60" cy="50" fill="#fda22e" r="2" data-original="#FDA22E" class="" style="fill:#FFE529" data-old_color="#fda22e"/><circle cx="60" cy="59" fill="#fda22e" r="2" data-original="#FDA22E" class="" style="fill:#FFE529" data-old_color="#fda22e"/><circle cx="60" cy="23" fill="#fda22e" r="2" data-original="#FDA22E" class="" style="fill:#FFE529" data-old_color="#fda22e"/><circle cx="60" cy="14" fill="#fda22e" r="2" data-original="#FDA22E" class="" style="fill:#FFE529" data-old_color="#fda22e"/><circle cx="60" cy="5" fill="#fda22e" r="2" data-original="#FDA22E" class="" style="fill:#FFE529" data-old_color="#fda22e"/><circle cx="6" cy="6" fill="#4bbee5" r="4" data-original="#4BBEE5" class="" style="fill:#FFCE00" data-old_color="#4bbee5"/><circle cx="6" cy="19" fill="#4bbee5" r="4" data-original="#4BBEE5" class="" style="fill:#FFCE00" data-old_color="#4bbee5"/><circle cx="6" cy="32" fill="#4bbee5" r="4" data-original="#4BBEE5" class="" style="fill:#FFCE00" data-old_color="#4bbee5"/><circle cx="6" cy="45" fill="#4bbee5" r="4" data-original="#4BBEE5" class="" style="fill:#FFCE00" data-old_color="#4bbee5"/><circle cx="6" cy="58" fill="#4bbee5" r="4" data-original="#4BBEE5" class="" style="fill:#FFCE00" data-old_color="#4bbee5"/><path d="m27 18h9v2h-9z" fill="#2d366d" data-original="#2D366D" class="active-path" style="fill:#F4CA7F" data-old_color="#2d366d"/><path d="m27 31h9v2h-9z" fill="#2d366d" data-original="#2D366D" class="active-path" style="fill:#F4CA7F" data-old_color="#2d366d"/><path d="m27 44h9v2h-9z" fill="#2d366d" data-original="#2D366D" class="active-path" style="fill:#F4CA7F" data-old_color="#2d366d"/><path d="m37 50c-1.105 0-2-.895-2-2v-33c0-1.105.895-2 2-2 1.105 0 2 .895 2 2v33c0 1.105-.895 2-2 2z" fill="#f82f45" data-original="#F82F45" class="" style="fill:#FFF39D" data-old_color="#f82f45"/><circle cx="24" cy="19" fill="#fda22e" r="4" data-original="#FDA22E" class="" style="fill:#FFE529" data-old_color="#fda22e"/><circle cx="24" cy="32" fill="#fda22e" r="4" data-original="#FDA22E" class="" style="fill:#FFE529" data-old_color="#fda22e"/><circle cx="24" cy="45" fill="#fda22e" r="4" data-original="#FDA22E" class="" style="fill:#FFE529" data-old_color="#fda22e"/><path d="m30 23h2v2h-2z" fill="#2d366d" data-original="#2D366D" class="active-path" style="fill:#F4CA7F" data-old_color="#2d366d"/><path d="m30 27h2v2h-2z" fill="#2d366d" data-original="#2D366D" class="active-path" style="fill:#F4CA7F" data-old_color="#2d366d"/><path d="m30 35h2v2h-2z" fill="#2d366d" data-original="#2D366D" class="active-path" style="fill:#F4CA7F" data-old_color="#2d366d"/><path d="m30 39h2v2h-2z" fill="#2d366d" data-original="#2D366D" class="active-path" style="fill:#F4CA7F" data-old_color="#2d366d"/></g> </svg>
