<svg xmlns="http://www.w3.org/2000/svg" id="Layer_1" enable-background="new 0 0 512 512" height="512" viewBox="0 0 512 512" width="512" class=""><g><link xmlns="" type="text/css" id="dark-mode" rel="stylesheet" href=""></link><style xmlns="" type="text/css" id="dark-mode-custom-style"></style><g><g fill="#e2e0e0"><path d="m384 72c-8.837 0-16-7.164-16-16v-40c0-8.836 7.163-16 16-16s16 7.164 16 16v40c0 8.836-7.163 16-16 16z" data-original="#E2E0E0" class="active-path" style="fill:#FFE529" data-old_color="#E2E0E0"></path><path d="m320 72c-8.837 0-16-7.164-16-16v-40c0-8.836 7.163-16 16-16s16 7.164 16 16v40c0 8.836-7.163 16-16 16z" data-original="#E2E0E0" class="active-path" style="fill:#FFE529" data-old_color="#E2E0E0"></path><path d="m256 72c-8.836 0-16-7.164-16-16v-40c0-8.836 7.164-16 16-16 8.837 0 16 7.164 16 16v40c0 8.836-7.163 16-16 16z" data-original="#E2E0E0" class="active-path" style="fill:#FFE529" data-old_color="#E2E0E0"></path><path d="m192 72c-8.836 0-16-7.164-16-16v-40c0-8.836 7.164-16 16-16s16 7.164 16 16v40c0 8.836-7.164 16-16 16z" data-original="#E2E0E0" class="active-path" style="fill:#FFE529" data-old_color="#E2E0E0"></path><path d="m128 72c-8.836 0-16-7.164-16-16v-40c0-8.836 7.164-16 16-16s16 7.164 16 16v40c0 8.836-7.164 16-16 16z" data-original="#E2E0E0" class="active-path" style="fill:#FFE529" data-old_color="#E2E0E0"></path><path d="m56 144h-40c-8.836 0-16-7.164-16-16s7.164-16 16-16h40c8.836 0 16 7.164 16 16s-7.164 16-16 16z" data-original="#E2E0E0" class="active-path" style="fill:#FFE529" data-old_color="#E2E0E0"></path><path d="m56 208h-40c-8.836 0-16-7.164-16-16s7.164-16 16-16h40c8.836 0 16 7.164 16 16s-7.164 16-16 16z" data-original="#E2E0E0" class="active-path" style="fill:#FFE529" data-old_color="#E2E0E0"></path><path d="m56 272h-40c-8.836 0-16-7.164-16-16s7.164-16 16-16h40c8.836 0 16 7.164 16 16s-7.164 16-16 16z" data-original="#E2E0E0" class="active-path" style="fill:#FFE529" data-old_color="#E2E0E0"></path><path d="m56 336h-40c-8.836 0-16-7.164-16-16s7.164-16 16-16h40c8.836 0 16 7.164 16 16s-7.164 16-16 16z" data-original="#E2E0E0" class="active-path" style="fill:#FFE529" data-old_color="#E2E0E0"></path><path d="m56 400h-40c-8.836 0-16-7.164-16-16s7.164-16 16-16h40c8.836 0 16 7.164 16 16s-7.164 16-16 16z" data-original="#E2E0E0" class="active-path" style="fill:#FFE529" data-old_color="#E2E0E0"></path><path d="m128 512c-8.836 0-16-7.164-16-16v-40c0-8.836 7.164-16 16-16s16 7.164 16 16v40c0 8.836-7.164 16-16 16z" data-original="#E2E0E0" class="active-path" style="fill:#FFE529" data-old_color="#E2E0E0"></path><path d="m192 512c-8.836 0-16-7.164-16-16v-40c0-8.836 7.164-16 16-16s16 7.164 16 16v40c0 8.836-7.164 16-16 16z" data-original="#E2E0E0" class="active-path" style="fill:#FFE529" data-old_color="#E2E0E0"></path><path d="m256 512c-8.836 0-16-7.164-16-16v-40c0-8.836 7.164-16 16-16 8.837 0 16 7.164 16 16v40c0 8.836-7.163 16-16 16z" data-original="#E2E0E0" class="active-path" style="fill:#FFE529" data-old_color="#E2E0E0"></path><path d="m320 512c-8.837 0-16-7.164-16-16v-40c0-8.836 7.163-16 16-16s16 7.164 16 16v40c0 8.836-7.163 16-16 16z" data-original="#E2E0E0" class="active-path" style="fill:#FFE529" data-old_color="#E2E0E0"></path><path d="m384 512c-8.837 0-16-7.164-16-16v-40c0-8.836 7.163-16 16-16s16 7.164 16 16v40c0 8.836-7.163 16-16 16z" data-original="#E2E0E0" class="active-path" style="fill:#FFE529" data-old_color="#E2E0E0"></path></g><path d="m496 400h-40c-8.837 0-16-7.164-16-16s7.163-16 16-16h40c8.837 0 16 7.164 16 16s-7.163 16-16 16z" fill="#cecccc" data-original="#CECCCC" class="" style="fill:#FFE529" data-old_color="#cecccc"></path><path d="m496 336h-40c-8.837 0-16-7.164-16-16s7.163-16 16-16h40c8.837 0 16 7.164 16 16s-7.163 16-16 16z" fill="#cecccc" data-original="#CECCCC" class="" style="fill:#FFE529" data-old_color="#cecccc"></path><path d="m496 272h-40c-8.837 0-16-7.164-16-16s7.163-16 16-16h40c8.837 0 16 7.164 16 16s-7.163 16-16 16z" fill="#cecccc" data-original="#CECCCC" class="" style="fill:#FFE529" data-old_color="#cecccc"></path><path d="m496 208h-40c-8.837 0-16-7.164-16-16s7.163-16 16-16h40c8.837 0 16 7.164 16 16s-7.163 16-16 16z" fill="#cecccc" data-original="#CECCCC" class="" style="fill:#FFE529" data-old_color="#cecccc"></path><path d="m496 144h-40c-8.837 0-16-7.164-16-16s7.163-16 16-16h40c8.837 0 16 7.164 16 16s-7.163 16-16 16z" fill="#cecccc" data-original="#CECCCC" class="" style="fill:#FFE529" data-old_color="#cecccc"></path><path d="m472 86v340c0 25.36-20.64 46-46 46h-340c-25.36 0-46-20.64-46-46v-340c0-25.36 20.64-46 46-46h340c25.36 0 46 20.64 46 46z" fill="#acebe2" data-original="#ACEBE2" class="" style="fill:#F0C402" data-old_color="#acebe2"></path><path d="m472 86v340c0 25.36-20.64 46-46 46h-32c25.36 0 46-20.64 46-46v-340c0-25.36-20.64-46-46-46h32c25.36 0 46 20.64 46 46z" fill="#98d7ce" data-original="#98D7CE" class="" style="fill:#F0C402" data-old_color="#98d7ce"></path><path d="m416 142v228c0 25.36-20.64 46-46 46h-228c-25.36 0-46-20.64-46-46v-228c0-25.36 20.64-46 46-46h228c25.36 0 46 20.64 46 46z" fill="#e2e0e0" data-original="#E2E0E0" class="active-path" style="fill:#FFE529" data-old_color="#e2e0e0"></path><path d="m416 142v228c0 25.36-20.64 46-46 46h-32c25.36 0 46-20.64 46-46v-228c0-25.36-20.64-46-46-46h32c25.36 0 46 20.64 46 46z" fill="#cecccc" data-original="#CECCCC" class="" style="fill:#FFE529" data-old_color="#cecccc"></path><path d="m168.02 184c-8.836 0-16.005-7.164-16.005-16s7.158-16 15.995-16h.01c8.836 0 16 7.164 16 16s-7.164 16-16 16z" fill="#bab8b8" data-original="#BAB8B8" class="" style="fill:#FFF39D" data-old_color="#bab8b8"></path><path d="m168.02 360c-8.836 0-16.005-7.164-16.005-16s7.158-16 15.995-16h.01c8.836 0 16 7.164 16 16s-7.164 16-16 16z" fill="#bab8b8" data-original="#BAB8B8" class="" style="fill:#FFF39D" data-old_color="#bab8b8"></path><path d="m344.02 360c-8.836 0-16.005-7.164-16.005-16s7.159-16 15.995-16h.01c8.837 0 16 7.164 16 16s-7.164 16-16 16z" fill="#bab8b8" data-original="#BAB8B8" class="" style="fill:#FFF39D" data-old_color="#bab8b8"></path><path d="m344.02 184c-8.836 0-16.005-7.164-16.005-16s7.159-16 15.995-16h.01c8.837 0 16 7.164 16 16s-7.164 16-16 16z" fill="#bab8b8" data-original="#BAB8B8" class="" style="fill:#FFF39D" data-old_color="#bab8b8"></path></g></g> </svg>